# Blender v2.78 (sub 0) OBJ File: ''
# www.blender.org
mtllib cargo.mtl
o Cube.009
v 1.150000 -0.800520 1.150000
v 1.150000 -0.500520 1.150000
v 1.050000 -0.500520 1.150000
v 1.050000 -0.800520 1.150000
v 1.050000 -0.500520 -1.150000
v 1.050000 -0.800520 -1.150000
v 1.150000 -0.500520 -1.150000
v 1.150000 -0.800520 -1.150000
vn 0.0000 0.0000 1.0000
vn -1.0000 0.0000 0.0000
vn 0.0000 0.0000 -1.0000
vn 1.0000 0.0000 0.0000
vn 0.0000 -1.0000 -0.0000
vn 0.0000 1.0000 0.0000
usemtl ring
s 1
f 1//1 2//1 3//1 4//1
f 4//2 3//2 5//2 6//2
f 6//3 5//3 7//3 8//3
f 8//4 7//4 2//4 1//4
f 4//5 6//5 8//5 1//5
f 5//6 3//6 2//6 7//6
o Cube.002
v 1.000000 -0.987000 -0.987000
v 0.987000 -1.000000 -0.987000
v 0.987000 -0.987000 -1.000000
v 0.987000 -1.000000 0.987000
v 1.000000 -0.987000 0.987000
v 0.987000 -0.987000 1.000000
v -1.000000 -0.987000 0.987000
v -0.987000 -1.000000 0.987000
v -0.987000 -0.987000 1.000000
v -0.986999 -0.987000 -1.000000
v -0.986999 -1.000000 -0.987000
v -0.999999 -0.987000 -0.987000
v 0.987000 0.987000 -0.999999
v 0.987000 1.000000 -0.986999
v 1.000000 0.987000 -0.986999
v -0.986999 0.987000 -1.000000
v -0.999999 0.987000 -0.987000
v -0.986999 1.000000 -0.987000
v -1.000000 0.987000 0.987000
v -0.987000 0.987000 1.000000
v -0.987000 1.000000 0.987000
v 0.986999 1.000000 0.987001
v 0.986999 0.987000 1.000001
v 0.999999 0.987000 0.987001
vn 0.0000 0.0000 -1.0000
vn -0.0000 -0.0000 1.0000
vn -1.0000 0.0000 -0.0000
vn -0.0000 1.0000 0.0000
vn 1.0000 0.0000 0.0000
vn 0.7588 -0.4606 -0.4606
vn 0.4606 -0.7588 -0.4606
vn 0.4606 -0.4606 -0.7588
vn 0.4606 -0.7588 0.4606
vn 0.7588 -0.4606 0.4606
vn 0.4606 -0.4606 0.7588
vn -0.7588 -0.4606 0.4606
vn -0.4606 -0.7588 0.4606
vn -0.4606 -0.4606 0.7588
vn -0.4606 -0.4606 -0.7588
vn -0.4606 -0.7588 -0.4606
vn -0.7588 -0.4606 -0.4606
vn 0.4606 0.4606 -0.7588
vn 0.4606 0.7588 -0.4606
vn 0.7588 0.4606 -0.4606
vn -0.4606 0.4606 -0.7588
vn -0.7588 0.4606 -0.4606
vn -0.4606 0.7588 -0.4606
vn -0.7588 0.4606 0.4606
vn -0.4606 0.4606 0.7588
vn -0.4606 0.7588 0.4606
vn 0.4606 0.7588 0.4606
vn 0.4606 0.4606 0.7588
vn 0.7588 0.4606 0.4606
vn 0.0000 -1.0000 -0.0000
usemtl base
s 1
f 21//7 11//7 18//7 24//7
f 14//8 31//8 28//8 17//8
f 15//9 27//9 25//9 20//9
f 22//10 26//10 29//10 30//10
f 9//11 23//11 32//11 13//11
f 9//12 10//13 11//14
f 12//15 13//16 14//17
f 15//18 16//19 17//20
f 18//21 19//22 20//23
f 21//24 22//25 23//26
f 24//27 25//28 26//29
f 27//30 28//31 29//32
f 30//33 31//34 32//35
f 21//24 24//27 26//29 22//25
f 17//20 28//31 27//30 15//18
f 28//31 31//34 30//33 29//32
f 25//28 27//30 29//32 26//29
f 9//12 13//16 12//15 10//13
f 13//16 32//35 31//34 14//17
f 22//25 30//33 32//35 23//26
f 14//17 17//20 16//19 12//15
f 20//23 25//28 24//27 18//21
f 15//18 20//23 19//22 16//19
f 10//13 19//22 18//21 11//14
f 11//14 21//24 23//26 9//12
f 10//36 12//36 16//36 19//36
o Cube.001
v -1.100000 -0.800520 1.150000
v -1.100000 -0.500520 1.150000
v -1.100000 -0.500520 1.050000
v -1.100000 -0.800520 1.050000
v 1.100000 -0.500520 1.050000
v 1.100000 -0.800520 1.050000
v 1.100000 -0.500520 1.150000
v 1.100000 -0.800520 1.150000
vn -1.0000 0.0000 0.0000
vn 0.0000 0.0000 -1.0000
vn 1.0000 0.0000 0.0000
vn 0.0000 0.0000 1.0000
vn 0.0000 -1.0000 0.0000
vn 0.0000 1.0000 0.0000
usemtl ring
s 1
f 33//37 34//37 35//37 36//37
f 36//38 35//38 37//38 38//38
f 38//39 37//39 39//39 40//39
f 40//40 39//40 34//40 33//40
f 36//41 38//41 40//41 33//41
f 37//42 35//42 34//42 39//42
o Cube.005
v -1.100000 -0.800520 -1.050000
v -1.100000 -0.500520 -1.050000
v -1.100000 -0.500520 -1.150000
v -1.100000 -0.800520 -1.150000
v 1.100000 -0.500520 -1.150000
v 1.100000 -0.800520 -1.150000
v 1.100000 -0.500520 -1.050000
v 1.100000 -0.800520 -1.050000
vn -1.0000 0.0000 0.0000
vn 0.0000 0.0000 -1.0000
vn 1.0000 0.0000 0.0000
vn 0.0000 0.0000 1.0000
vn 0.0000 -1.0000 0.0000
vn 0.0000 1.0000 0.0000
usemtl ring
s 1
f 41//43 42//43 43//43 44//43
f 44//44 43//44 45//44 46//44
f 46//45 45//45 47//45 48//45
f 48//46 47//46 42//46 41//46
f 44//47 46//47 48//47 41//47
f 45//48 43//48 42//48 47//48
o Cube.008
v -1.050000 -0.800520 1.150000
v -1.050000 -0.500520 1.150000
v -1.150000 -0.500520 1.150000
v -1.150000 -0.800520 1.150000
v -1.150000 -0.500520 -1.150000
v -1.150000 -0.800520 -1.150000
v -1.050000 -0.500520 -1.150000
v -1.050000 -0.800520 -1.150000
vn 0.0000 0.0000 1.0000
vn -1.0000 0.0000 0.0000
vn 0.0000 0.0000 -1.0000
vn 1.0000 0.0000 0.0000
vn 0.0000 -1.0000 -0.0000
vn 0.0000 1.0000 0.0000
usemtl ring
s 1
f 49//49 50//49 51//49 52//49
f 52//50 51//50 53//50 54//50
f 54//51 53//51 55//51 56//51
f 56//52 55//52 50//52 49//52
f 52//53 54//53 56//53 49//53
f 53//54 51//54 50//54 55//54
o Cube.000_Cube.010
v -1.100000 0.522836 1.150000
v -1.100000 0.822836 1.150000
v -1.100000 0.822836 1.050000
v -1.100000 0.522836 1.050000
v 1.100000 0.822836 1.050000
v 1.100000 0.522836 1.050000
v 1.100000 0.822836 1.150000
v 1.100000 0.522836 1.150000
vn -1.0000 0.0000 0.0000
vn 0.0000 0.0000 -1.0000
vn 1.0000 0.0000 0.0000
vn 0.0000 0.0000 1.0000
vn 0.0000 -1.0000 0.0000
vn 0.0000 1.0000 0.0000
usemtl ring
s 1
f 57//55 58//55 59//55 60//55
f 60//56 59//56 61//56 62//56
f 62//57 61//57 63//57 64//57
f 64//58 63//58 58//58 57//58
f 60//59 62//59 64//59 57//59
f 61//60 59//60 58//60 63//60
o Cube.010_Cube.011
v -1.100000 0.522836 -1.050000
v -1.100000 0.822836 -1.050000
v -1.100000 0.822836 -1.150000
v -1.100000 0.522836 -1.150000
v 1.100000 0.822836 -1.150000
v 1.100000 0.522836 -1.150000
v 1.100000 0.822836 -1.050000
v 1.100000 0.522836 -1.050000
vn -1.0000 0.0000 0.0000
vn 0.0000 0.0000 -1.0000
vn 1.0000 0.0000 0.0000
vn 0.0000 0.0000 1.0000
vn 0.0000 -1.0000 0.0000
vn 0.0000 1.0000 0.0000
usemtl ring
s 1
f 65//61 66//61 67//61 68//61
f 68//62 67//62 69//62 70//62
f 70//63 69//63 71//63 72//63
f 72//64 71//64 66//64 65//64
f 68//65 70//65 72//65 65//65
f 69//66 67//66 66//66 71//66
o Cube.011_Cube.012
v -1.050000 0.522836 1.150000
v -1.050000 0.822836 1.150000
v -1.150000 0.822836 1.150000
v -1.150000 0.522836 1.150000
v -1.150000 0.822836 -1.150000
v -1.150000 0.522836 -1.150000
v -1.050000 0.822836 -1.150000
v -1.050000 0.522836 -1.150000
vn 0.0000 0.0000 1.0000
vn -1.0000 0.0000 0.0000
vn 0.0000 0.0000 -1.0000
vn 1.0000 0.0000 0.0000
vn 0.0000 -1.0000 -0.0000
vn 0.0000 1.0000 0.0000
usemtl ring
s 1
f 73//67 74//67 75//67 76//67
f 76//68 75//68 77//68 78//68
f 78//69 77//69 79//69 80//69
f 80//70 79//70 74//70 73//70
f 76//71 78//71 80//71 73//71
f 77//72 75//72 74//72 79//72
o Cube.012_Cube.013
v 1.150000 0.522836 1.150000
v 1.150000 0.822836 1.150000
v 1.050000 0.822836 1.150000
v 1.050000 0.522836 1.150000
v 1.050000 0.822836 -1.150000
v 1.050000 0.522836 -1.150000
v 1.150000 0.822836 -1.150000
v 1.150000 0.522836 -1.150000
vn 0.0000 0.0000 1.0000
vn -1.0000 0.0000 0.0000
vn 0.0000 0.0000 -1.0000
vn 1.0000 0.0000 0.0000
vn 0.0000 -1.0000 -0.0000
vn 0.0000 1.0000 0.0000
usemtl ring
s 1
f 81//73 82//73 83//73 84//73
f 84//74 83//74 85//74 86//74
f 86//75 85//75 87//75 88//75
f 88//76 87//76 82//76 81//76
f 84//77 86//77 88//77 81//77
f 85//78 83//78 82//78 87//78
